<?xml version="1.0" encoding="UTF-8" standalone="no"?>
<!DOCTYPE svg PUBLIC "-//W3C//DTD SVG 1.1//EN" "http://www.w3.org/Graphics/SVG/1.1/DTD/svg11.dtd">
<!-- Created with Vectornator (http://vectornator.io/) -->
<svg height="100%" stroke-miterlimit="10" style="fill-rule:nonzero;clip-rule:evenodd;stroke-linecap:round;stroke-linejoin:round;" version="1.1" viewBox="350 30 400 450" width="75%" xml:space="preserve" xmlns="http://www.w3.org/2000/svg" xmlns:vectornator="http://vectornator.io" xmlns:xlink="http://www.w3.org/1999/xlink">
<defs/>
<g id="Layer-1" vectornator:layerName="Layer 1">
<g opacity="1">
<path d="M1037.56 941.384L1037.78 941.384L1037.78 941.493L1037.56 941.493L1037.56 941.384Z" fill="#ffffff" fill-rule="nonzero" stroke="none"/>
<path d="M1037.56 941.384L1037.78 941.384L1037.78 941.493L1037.56 941.493L1037.56 941.384Z" fill="none" stroke="#303030" stroke-linecap="butt" stroke-linejoin="round" stroke-width="1"/>
<g fill="#303030" stroke="none"/>
</g>
<g opacity="1">
<path d="M311.749 141.737L396.799 141.737L396.799 226.787L311.749 226.787L311.749 141.737Z" fill="#ffffff" fill-rule="nonzero" opacity="1" stroke="#303030" stroke-linecap="butt" stroke-linejoin="round" stroke-width="1"/>
<path d="M396.799 141.737L481.849 141.737L481.849 226.787L396.799 226.787L396.799 141.737Z" fill="#ffffff" fill-rule="nonzero" opacity="1" stroke="#303030" stroke-linecap="butt" stroke-linejoin="round" stroke-width="1"/>
<path d="M481.849 141.737L566.899 141.737L566.899 226.787L481.849 226.787L481.849 141.737Z" fill="#ffffff" fill-rule="nonzero" opacity="1" stroke="#303030" stroke-linecap="butt" stroke-linejoin="round" stroke-width="1"/>
<path d="M311.749 226.787L396.799 226.787L396.799 311.837L311.749 311.837L311.749 226.787Z" fill="#ffffff" fill-rule="nonzero" opacity="1" stroke="#303030" stroke-linecap="butt" stroke-linejoin="round" stroke-width="1"/>
<path d="M396.799 226.787L481.849 226.787L481.849 311.837L396.799 311.837L396.799 226.787Z" fill="#ffffff" fill-rule="nonzero" opacity="1" stroke="#303030" stroke-linecap="butt" stroke-linejoin="round" stroke-width="1"/>
<path d="M481.849 226.787L566.899 226.787L566.899 311.837L481.849 311.837L481.849 226.787Z" fill="#ffffff" fill-rule="nonzero" opacity="1" stroke="#303030" stroke-linecap="butt" stroke-linejoin="round" stroke-width="1"/>
<path d="M311.749 311.837L396.799 311.837L396.799 396.887L311.749 396.887L311.749 311.837Z" fill="#ffffff" fill-rule="nonzero" opacity="1" stroke="#303030" stroke-linecap="butt" stroke-linejoin="round" stroke-width="1"/>
<path d="M396.799 311.837L481.849 311.837L481.849 396.887L396.799 396.887L396.799 311.837Z" fill="#ffffff" fill-rule="nonzero" opacity="1" stroke="#303030" stroke-linecap="butt" stroke-linejoin="round" stroke-width="1"/>
<path d="M481.849 311.837L566.899 311.837L566.899 396.887L481.849 396.887L481.849 311.837Z" fill="#ffffff" fill-rule="nonzero" opacity="1" stroke="#303030" stroke-linecap="butt" stroke-linejoin="round" stroke-width="1"/>
</g>
<g opacity="1">
<path d="M642.829 140.793L727.879 140.793L727.879 225.843L642.829 225.843L642.829 140.793Z" fill="#ffffff" fill-rule="nonzero" opacity="1" stroke="#303030" stroke-linecap="butt" stroke-linejoin="round" stroke-width="1"/>
<path d="M727.879 140.793L812.929 140.793L812.929 225.843L727.879 225.843L727.879 140.793Z" fill="#ffffff" fill-rule="nonzero" opacity="1" stroke="#303030" stroke-linecap="butt" stroke-linejoin="round" stroke-width="1"/>
<path d="M812.929 140.793L897.979 140.793L897.979 225.843L812.929 225.843L812.929 140.793Z" fill="#ffffff" fill-rule="nonzero" opacity="1" stroke="#303030" stroke-linecap="butt" stroke-linejoin="round" stroke-width="1"/>
<path d="M642.829 225.843L727.879 225.843L727.879 310.893L642.829 310.893L642.829 225.843Z" fill="#ffffff" fill-rule="nonzero" opacity="1" stroke="#303030" stroke-linecap="butt" stroke-linejoin="round" stroke-width="1"/>
<path d="M727.879 225.843L812.929 225.843L812.929 310.893L727.879 310.893L727.879 225.843Z" fill="#ffffff" fill-rule="nonzero" opacity="1" stroke="#303030" stroke-linecap="butt" stroke-linejoin="round" stroke-width="1"/>
<path d="M812.929 225.843L897.979 225.843L897.979 310.893L812.929 310.893L812.929 225.843Z" fill="#ffffff" fill-rule="nonzero" opacity="1" stroke="#303030" stroke-linecap="butt" stroke-linejoin="round" stroke-width="1"/>
<path d="M642.829 310.893L727.879 310.893L727.879 395.943L642.829 395.943L642.829 310.893Z" fill="#ffffff" fill-rule="nonzero" opacity="1" stroke="#303030" stroke-linecap="butt" stroke-linejoin="round" stroke-width="1"/>
<path d="M727.879 310.893L812.929 310.893L812.929 395.943L727.879 395.943L727.879 310.893Z" fill="#ffffff" fill-rule="nonzero" opacity="1" stroke="#303030" stroke-linecap="butt" stroke-linejoin="round" stroke-width="1"/>
<path d="M812.929 310.893L897.979 310.893L897.979 395.943L812.929 395.943L812.929 310.893Z" fill="#ffffff" fill-rule="nonzero" opacity="1" stroke="#303030" stroke-linecap="butt" stroke-linejoin="round" stroke-width="1"/>
</g>
<g fill="#000000" opacity="1" stroke="none">
<path d="M422.529 276.124L422.172 276.627C421.301 275.967 420.637 275.2 420.18 274.325C419.723 273.45 419.494 272.526 419.494 271.553C419.494 270.573 419.721 269.648 420.174 268.779C420.627 267.91 421.293 267.145 422.172 266.485L422.529 266.989C421.815 267.629 421.3 268.3 420.986 269.001C420.671 269.703 420.514 270.549 420.514 271.542C420.514 272.569 420.677 273.433 421.003 274.134C421.329 274.835 421.838 275.499 422.529 276.124Z"/>
<path d="M428.113 266.485C428.285 266.485 428.432 266.546 428.553 266.669C428.674 266.793 428.735 266.94 428.735 267.112C428.735 267.292 428.675 267.442 428.556 267.563C428.437 267.684 428.289 267.745 428.113 267.745C427.953 267.745 427.812 267.681 427.689 267.554C427.566 267.427 427.504 267.28 427.504 267.112C427.504 266.944 427.566 266.797 427.689 266.672C427.812 266.547 427.953 266.485 428.113 266.485ZM428.559 274.899L427.645 274.899L427.645 269.585L425.846 269.585L425.846 268.793L428.559 268.793L428.559 274.899Z"/>
<path d="M434.928 275.057C434.725 275.034 434.557 274.95 434.424 274.805C434.291 274.661 434.225 274.497 434.225 274.313C434.225 274.114 434.289 273.946 434.418 273.809C434.547 273.672 434.709 273.604 434.904 273.604C435.123 273.604 435.313 273.693 435.473 273.871C435.633 274.048 435.713 274.262 435.713 274.512C435.713 275.278 435.287 275.876 434.436 276.305L434.213 275.883C434.69 275.649 434.928 275.374 434.928 275.057Z"/>
<path d="M449.717 266.485C449.889 266.485 450.035 266.546 450.156 266.669C450.277 266.793 450.338 266.94 450.338 267.112C450.338 267.292 450.278 267.442 450.159 267.563C450.04 267.684 449.893 267.745 449.717 267.745C449.557 267.745 449.415 267.681 449.292 267.554C449.169 267.427 449.108 267.28 449.108 267.112C449.108 266.944 449.169 266.797 449.292 266.672C449.415 266.547 449.557 266.485 449.717 266.485ZM450.162 275.21C450.162 275.975 450.03 276.517 449.767 276.835C449.503 277.154 449.043 277.313 448.387 277.313C447.965 277.313 447.496 277.233 446.981 277.073L447.221 276.329C447.654 276.454 448.043 276.516 448.387 276.516C448.715 276.516 448.941 276.423 449.064 276.238C449.187 276.052 449.248 275.678 449.248 275.116L449.248 269.585L447.449 269.585L447.449 268.793L450.162 268.793L450.162 275.21Z"/>
<path d="M454.867 266.485C455.742 267.145 456.406 267.91 456.86 268.779C457.313 269.648 457.539 270.573 457.539 271.553C457.539 272.526 457.312 273.45 456.857 274.325C456.402 275.2 455.738 275.967 454.867 276.627L454.504 276.124C455.219 275.491 455.734 274.818 456.048 274.105C456.362 273.392 456.52 272.538 456.52 271.542C456.52 270.514 456.358 269.655 456.033 268.963C455.709 268.272 455.199 267.614 454.504 266.989L454.867 266.485Z"/>
</g>
<g fill="#000000" opacity="1" stroke="none">
<path d="M415.328 190.825L414.971 191.329C414.1 190.669 413.436 189.901 412.979 189.026C412.522 188.151 412.293 187.227 412.293 186.255C412.293 185.274 412.52 184.349 412.973 183.48C413.426 182.611 414.092 181.847 414.971 181.186L415.328 181.69C414.613 182.331 414.099 183.002 413.784 183.703C413.47 184.404 413.313 185.251 413.313 186.243C413.313 187.27 413.476 188.135 413.802 188.836C414.128 189.537 414.637 190.2 415.328 190.825Z"/>
<path d="M420.912 181.186C421.084 181.186 421.231 181.248 421.352 181.371C421.473 181.494 421.533 181.641 421.533 181.813C421.533 181.993 421.474 182.143 421.355 182.264C421.236 182.386 421.088 182.446 420.912 182.446C420.752 182.446 420.611 182.383 420.487 182.256C420.364 182.129 420.303 181.981 420.303 181.813C420.303 181.645 420.364 181.499 420.487 181.374C420.611 181.249 420.752 181.186 420.912 181.186ZM421.358 189.6L420.444 189.6L420.444 184.286L418.645 184.286L418.645 183.495L421.358 183.495L421.358 189.6Z"/>
<path d="M427.727 189.759C427.524 189.735 427.356 189.651 427.223 189.507C427.09 189.362 427.024 189.198 427.024 189.014C427.024 188.815 427.088 188.647 427.217 188.511C427.346 188.374 427.508 188.305 427.703 188.305C427.922 188.305 428.111 188.394 428.272 188.572C428.432 188.75 428.512 188.964 428.512 189.214C428.512 189.979 428.086 190.577 427.235 191.007L427.012 190.585C427.488 190.35 427.727 190.075 427.727 189.759Z"/>
<path d="M442.516 181.186C442.688 181.186 442.834 181.248 442.955 181.371C443.076 181.494 443.137 181.641 443.137 181.813C443.137 181.993 443.077 182.143 442.958 182.264C442.839 182.386 442.692 182.446 442.516 182.446C442.356 182.446 442.214 182.383 442.091 182.256C441.968 182.129 441.906 181.981 441.906 181.813C441.906 181.645 441.968 181.499 442.091 181.374C442.214 181.249 442.356 181.186 442.516 181.186ZM442.961 189.911C442.961 190.677 442.829 191.219 442.566 191.537C442.302 191.855 441.842 192.014 441.186 192.014C440.764 192.014 440.295 191.934 439.779 191.774L440.02 191.03C440.453 191.155 440.842 191.218 441.186 191.218C441.514 191.218 441.739 191.125 441.862 190.939C441.986 190.754 442.047 190.38 442.047 189.817L442.047 184.286L440.248 184.286L440.248 183.495L442.961 183.495L442.961 189.911Z"/>
<path d="M451 186.747L447.52 186.747L447.52 185.856L451 185.856L451 186.747Z"/>
<path d="M458.887 189.6L454.539 189.6L454.539 188.763L456.291 188.763L456.291 182.341L454.639 183.167L454.639 182.206L456.426 181.286L457.252 181.286L457.252 188.763L458.887 188.763L458.887 189.6Z"/>
<path d="M462.069 181.186C462.944 181.847 463.608 182.611 464.061 183.48C464.514 184.349 464.74 185.274 464.74 186.255C464.74 187.227 464.513 188.151 464.058 189.026C463.603 189.901 462.94 190.669 462.069 191.329L461.705 190.825C462.42 190.192 462.935 189.519 463.249 188.806C463.564 188.094 463.721 187.239 463.721 186.243C463.721 185.216 463.559 184.356 463.235 183.665C462.91 182.973 462.401 182.315 461.705 181.69L462.069 181.186Z"/>
</g>
<g fill="#000000" opacity="1" stroke="none">
<path d="M415.328 360.604L414.971 361.108C414.1 360.448 413.436 359.68 412.979 358.805C412.522 357.93 412.293 357.006 412.293 356.034C412.293 355.053 412.52 354.128 412.973 353.259C413.426 352.39 414.092 351.626 414.971 350.965L415.328 351.469C414.613 352.11 414.099 352.781 413.784 353.482C413.47 354.183 413.313 355.03 413.313 356.022C413.313 357.049 413.476 357.914 413.802 358.615C414.128 359.316 414.637 359.979 415.328 360.604Z"/>
<path d="M420.912 350.965C421.084 350.965 421.231 351.027 421.352 351.15C421.473 351.273 421.533 351.42 421.533 351.592C421.533 351.772 421.474 351.922 421.355 352.043C421.236 352.165 421.088 352.225 420.912 352.225C420.752 352.225 420.611 352.162 420.487 352.035C420.364 351.908 420.303 351.76 420.303 351.592C420.303 351.424 420.364 351.278 420.487 351.153C420.611 351.028 420.752 350.965 420.912 350.965ZM421.358 359.379L420.444 359.379L420.444 354.065L418.645 354.065L418.645 353.274L421.358 353.274L421.358 359.379Z"/>
<path d="M427.727 359.538C427.524 359.514 427.356 359.43 427.223 359.286C427.09 359.141 427.024 358.977 427.024 358.793C427.024 358.594 427.088 358.426 427.217 358.29C427.346 358.153 427.508 358.085 427.703 358.085C427.922 358.085 428.111 358.173 428.272 358.351C428.432 358.529 428.512 358.743 428.512 358.993C428.512 359.758 428.086 360.356 427.235 360.786L427.012 360.364C427.488 360.129 427.727 359.854 427.727 359.538Z"/>
<path d="M442.516 350.965C442.688 350.965 442.834 351.027 442.955 351.15C443.076 351.273 443.137 351.42 443.137 351.592C443.137 351.772 443.077 351.922 442.958 352.043C442.839 352.165 442.692 352.225 442.516 352.225C442.356 352.225 442.214 352.162 442.091 352.035C441.968 351.908 441.906 351.76 441.906 351.592C441.906 351.424 441.968 351.278 442.091 351.153C442.214 351.028 442.356 350.965 442.516 350.965ZM442.961 359.69C442.961 360.456 442.829 360.998 442.566 361.316C442.302 361.634 441.842 361.793 441.186 361.793C440.764 361.793 440.295 361.713 439.779 361.553L440.02 360.809C440.453 360.934 440.842 360.997 441.186 360.997C441.514 360.997 441.739 360.904 441.862 360.718C441.986 360.533 442.047 360.159 442.047 359.596L442.047 354.065L440.248 354.065L440.248 353.274L442.961 353.274L442.961 359.69Z"/>
<path d="M452.09 355.53L449.717 355.53L449.717 357.926L448.949 357.926L448.949 355.53L446.547 355.53L446.547 354.762L448.949 354.762L448.949 352.36L449.717 352.36L449.717 354.762L452.09 354.762L452.09 355.53Z"/>
<path d="M458.887 359.379L454.539 359.379L454.539 358.542L456.291 358.542L456.291 352.12L454.639 352.946L454.639 351.985L456.426 351.065L457.252 351.065L457.252 358.542L458.887 358.542L458.887 359.379Z"/>
<path d="M462.069 350.965C462.944 351.626 463.608 352.39 464.061 353.259C464.514 354.128 464.74 355.053 464.74 356.034C464.74 357.006 464.513 357.93 464.058 358.805C463.603 359.68 462.94 360.448 462.069 361.108L461.705 360.604C462.42 359.971 462.935 359.298 463.249 358.585C463.564 357.873 463.721 357.018 463.721 356.022C463.721 354.995 463.559 354.135 463.235 353.444C462.91 352.752 462.401 352.094 461.705 351.469L462.069 350.965Z"/>
</g>
<g fill="#000000" opacity="1" stroke="none">
<path d="M331.184 276.074L330.826 276.578C329.955 275.918 329.291 275.15 328.834 274.275C328.377 273.4 328.149 272.477 328.149 271.504C328.149 270.523 328.375 269.599 328.828 268.73C329.281 267.86 329.947 267.096 330.826 266.436L331.184 266.939C330.469 267.58 329.954 268.251 329.64 268.952C329.325 269.653 329.168 270.5 329.168 271.492C329.168 272.52 329.331 273.384 329.657 274.085C329.983 274.786 330.492 275.449 331.184 276.074Z"/>
<path d="M336.768 266.436C336.94 266.436 337.086 266.497 337.207 266.62C337.328 266.743 337.389 266.891 337.389 267.063C337.389 267.242 337.329 267.393 337.21 267.514C337.091 267.635 336.943 267.695 336.768 267.695C336.607 267.695 336.466 267.632 336.343 267.505C336.22 267.378 336.158 267.231 336.158 267.063C336.158 266.895 336.22 266.748 336.343 266.623C336.466 266.498 336.607 266.436 336.768 266.436ZM337.213 274.85L336.299 274.85L336.299 269.535L334.5 269.535L334.5 268.744L337.213 268.744L337.213 274.85Z"/>
<path d="M345.252 271.996L341.772 271.996L341.772 271.106L345.252 271.106L345.252 271.996Z"/>
<path d="M353.139 274.85L348.791 274.85L348.791 274.012L350.543 274.012L350.543 267.59L348.891 268.416L348.891 267.455L350.678 266.535L351.504 266.535L351.504 274.012L353.139 274.012L353.139 274.85Z"/>
<path d="M357.984 275.008C357.781 274.984 357.613 274.9 357.481 274.756C357.348 274.611 357.281 274.447 357.281 274.264C357.281 274.064 357.346 273.897 357.475 273.76C357.604 273.623 357.766 273.555 357.961 273.555C358.18 273.555 358.369 273.644 358.529 273.821C358.69 273.999 358.77 274.213 358.77 274.463C358.77 275.229 358.344 275.826 357.492 276.256L357.27 275.834C357.746 275.6 357.984 275.324 357.984 275.008Z"/>
<path d="M372.774 266.436C372.945 266.436 373.092 266.497 373.213 266.62C373.334 266.743 373.395 266.891 373.395 267.063C373.395 267.242 373.335 267.393 373.216 267.514C373.097 267.635 372.949 267.695 372.774 267.695C372.613 267.695 372.472 267.632 372.349 267.505C372.226 267.378 372.164 267.231 372.164 267.063C372.164 266.895 372.226 266.748 372.349 266.623C372.472 266.498 372.613 266.436 372.774 266.436ZM373.219 275.16C373.219 275.926 373.087 276.468 372.823 276.786C372.56 277.105 372.1 277.264 371.443 277.264C371.022 277.264 370.553 277.184 370.037 277.023L370.277 276.279C370.711 276.404 371.1 276.467 371.443 276.467C371.772 276.467 371.997 276.374 372.12 276.189C372.243 276.003 372.305 275.629 372.305 275.066L372.305 269.535L370.506 269.535L370.506 268.744L373.219 268.744L373.219 275.16Z"/>
<path d="M377.924 266.436C378.799 267.096 379.463 267.86 379.916 268.73C380.369 269.599 380.596 270.523 380.596 271.504C380.596 272.477 380.368 273.4 379.913 274.275C379.458 275.15 378.795 275.918 377.924 276.578L377.561 276.074C378.275 275.441 378.79 274.769 379.105 274.056C379.419 273.343 379.576 272.488 379.576 271.492C379.576 270.465 379.414 269.606 379.09 268.914C378.766 268.223 378.256 267.564 377.561 266.939L377.924 266.436Z"/>
</g>
<g fill="#000000" opacity="1" stroke="none">
<path d="M323.982 190.776L323.625 191.28C322.754 190.619 322.09 189.852 321.633 188.977C321.176 188.102 320.947 187.178 320.947 186.205C320.947 185.225 321.174 184.3 321.627 183.431C322.08 182.562 322.746 181.797 323.625 181.137L323.982 181.641C323.268 182.282 322.753 182.952 322.439 183.654C322.124 184.355 321.967 185.201 321.967 186.194C321.967 187.221 322.13 188.085 322.456 188.786C322.782 189.488 323.291 190.151 323.982 190.776Z"/>
<path d="M329.566 181.137C329.738 181.137 329.885 181.199 330.006 181.322C330.127 181.445 330.188 181.592 330.188 181.764C330.188 181.944 330.128 182.094 330.009 182.215C329.89 182.336 329.742 182.397 329.566 182.397C329.406 182.397 329.265 182.333 329.142 182.206C329.019 182.079 328.957 181.932 328.957 181.764C328.957 181.596 329.019 181.45 329.142 181.325C329.265 181.2 329.406 181.137 329.566 181.137ZM330.012 189.551L329.098 189.551L329.098 184.237L327.299 184.237L327.299 183.446L330.012 183.446L330.012 189.551Z"/>
<path d="M338.051 186.698L334.57 186.698L334.57 185.807L338.051 185.807L338.051 186.698Z"/>
<path d="M345.938 189.551L341.59 189.551L341.59 188.713L343.342 188.713L343.342 182.291L341.69 183.118L341.69 182.157L343.477 181.237L344.303 181.237L344.303 188.713L345.938 188.713L345.938 189.551Z"/>
<path d="M350.783 189.709C350.58 189.686 350.412 189.602 350.279 189.457C350.147 189.313 350.08 189.149 350.08 188.965C350.08 188.766 350.145 188.598 350.274 188.461C350.402 188.325 350.565 188.256 350.76 188.256C350.979 188.256 351.168 188.345 351.328 188.523C351.488 188.701 351.568 188.914 351.568 189.164C351.568 189.93 351.143 190.528 350.291 190.957L350.068 190.535C350.545 190.301 350.783 190.026 350.783 189.709Z"/>
<path d="M365.572 181.137C365.744 181.137 365.891 181.199 366.012 181.322C366.133 181.445 366.193 181.592 366.193 181.764C366.193 181.944 366.134 182.094 366.015 182.215C365.896 182.336 365.748 182.397 365.572 182.397C365.412 182.397 365.271 182.333 365.148 182.206C365.024 182.079 364.963 181.932 364.963 181.764C364.963 181.596 365.024 181.45 365.148 181.325C365.271 181.2 365.412 181.137 365.572 181.137ZM366.018 189.862C366.018 190.627 365.886 191.169 365.622 191.488C365.358 191.806 364.899 191.965 364.242 191.965C363.82 191.965 363.352 191.885 362.836 191.725L363.076 190.981C363.51 191.106 363.899 191.168 364.242 191.168C364.57 191.168 364.796 191.076 364.919 190.89C365.042 190.704 365.104 190.33 365.104 189.768L365.104 184.237L363.305 184.237L363.305 183.446L366.018 183.446L366.018 189.862Z"/>
<path d="M374.057 186.698L370.576 186.698L370.576 185.807L374.057 185.807L374.057 186.698Z"/>
<path d="M381.943 189.551L377.596 189.551L377.596 188.713L379.348 188.713L379.348 182.291L377.695 183.118L377.695 182.157L379.482 181.237L380.309 181.237L380.309 188.713L381.943 188.713L381.943 189.551Z"/>
<path d="M385.125 181.137C386 181.797 386.664 182.562 387.117 183.431C387.57 184.3 387.797 185.225 387.797 186.205C387.797 187.178 387.569 188.102 387.114 188.977C386.659 189.852 385.996 190.619 385.125 191.28L384.762 190.776C385.477 190.143 385.991 189.47 386.306 188.757C386.62 188.044 386.777 187.19 386.777 186.194C386.777 185.166 386.615 184.307 386.291 183.616C385.967 182.924 385.457 182.266 384.762 181.641L385.125 181.137Z"/>
</g>
<g fill="#000000" opacity="1" stroke="none">
<path d="M324.032 360.555L323.674 361.059C322.803 360.398 322.139 359.631 321.682 358.756C321.225 357.881 320.997 356.957 320.997 355.984C320.997 355.004 321.223 354.079 321.676 353.21C322.129 352.341 322.795 351.576 323.674 350.916L324.032 351.42C323.317 352.061 322.802 352.731 322.488 353.433C322.173 354.134 322.016 354.981 322.016 355.973C322.016 357 322.179 357.864 322.505 358.565C322.832 359.267 323.34 359.93 324.032 360.555Z"/>
<path d="M329.616 350.916C329.788 350.916 329.934 350.978 330.055 351.101C330.176 351.224 330.237 351.371 330.237 351.543C330.237 351.723 330.177 351.873 330.058 351.994C329.939 352.115 329.792 352.176 329.616 352.176C329.456 352.176 329.314 352.112 329.191 351.985C329.068 351.858 329.006 351.711 329.006 351.543C329.006 351.375 329.068 351.229 329.191 351.104C329.314 350.979 329.456 350.916 329.616 350.916ZM330.061 359.33L329.147 359.33L329.147 354.016L327.348 354.016L327.348 353.225L330.061 353.225L330.061 359.33Z"/>
<path d="M338.1 356.477L334.62 356.477L334.62 355.586L338.1 355.586L338.1 356.477Z"/>
<path d="M345.987 359.33L341.639 359.33L341.639 358.492L343.391 358.492L343.391 352.07L341.739 352.897L341.739 351.936L343.526 351.016L344.352 351.016L344.352 358.492L345.987 358.492L345.987 359.33Z"/>
<path d="M350.833 359.488C350.629 359.465 350.461 359.381 350.329 359.236C350.196 359.092 350.129 358.928 350.129 358.744C350.129 358.545 350.194 358.377 350.323 358.24C350.452 358.104 350.614 358.035 350.809 358.035C351.028 358.035 351.217 358.124 351.378 358.302C351.538 358.48 351.618 358.693 351.618 358.943C351.618 359.709 351.192 360.307 350.34 360.736L350.118 360.314C350.594 360.08 350.833 359.805 350.833 359.488Z"/>
<path d="M365.622 350.916C365.794 350.916 365.94 350.978 366.061 351.101C366.182 351.224 366.243 351.371 366.243 351.543C366.243 351.723 366.183 351.873 366.064 351.994C365.945 352.115 365.797 352.176 365.622 352.176C365.461 352.176 365.32 352.112 365.197 351.985C365.074 351.858 365.012 351.711 365.012 351.543C365.012 351.375 365.074 351.229 365.197 351.104C365.32 350.979 365.461 350.916 365.622 350.916ZM366.067 359.641C366.067 360.406 365.935 360.948 365.671 361.267C365.408 361.585 364.948 361.744 364.292 361.744C363.87 361.744 363.401 361.664 362.885 361.504L363.126 360.76C363.559 360.885 363.948 360.947 364.292 360.947C364.62 360.947 364.845 360.855 364.968 360.669C365.091 360.483 365.153 360.109 365.153 359.547L365.153 354.016L363.354 354.016L363.354 353.225L366.067 353.225L366.067 359.641Z"/>
<path d="M375.196 355.481L372.823 355.481L372.823 357.877L372.055 357.877L372.055 355.481L369.653 355.481L369.653 354.713L372.055 354.713L372.055 352.311L372.823 352.311L372.823 354.713L375.196 354.713L375.196 355.481Z"/>
<path d="M381.993 359.33L377.645 359.33L377.645 358.492L379.397 358.492L379.397 352.07L377.745 352.897L377.745 351.936L379.532 351.016L380.358 351.016L380.358 358.492L381.993 358.492L381.993 359.33Z"/>
<path d="M385.174 350.916C386.049 351.576 386.713 352.341 387.167 353.21C387.62 354.079 387.846 355.004 387.846 355.984C387.846 356.957 387.619 357.881 387.164 358.756C386.709 359.631 386.045 360.398 385.174 361.059L384.811 360.555C385.526 359.922 386.041 359.249 386.355 358.536C386.669 357.823 386.827 356.969 386.827 355.973C386.827 354.945 386.665 354.086 386.34 353.395C386.016 352.703 385.506 352.045 384.811 351.42L385.174 350.916Z"/>
</g>
<g fill="#000000" opacity="1" stroke="none">
<path d="M501.615 276.074L501.257 276.578C500.386 275.918 499.722 275.15 499.265 274.275C498.808 273.4 498.579 272.477 498.579 271.504C498.579 270.523 498.806 269.599 499.259 268.73C499.712 267.86 500.378 267.096 501.257 266.436L501.615 266.939C500.9 267.58 500.385 268.251 500.071 268.952C499.756 269.653 499.599 270.5 499.599 271.492C499.599 272.52 499.762 273.384 500.088 274.085C500.414 274.786 500.923 275.449 501.615 276.074Z"/>
<path d="M507.199 266.436C507.371 266.436 507.517 266.497 507.638 266.62C507.759 266.743 507.82 266.891 507.82 267.063C507.82 267.242 507.76 267.393 507.641 267.514C507.522 267.635 507.374 267.695 507.199 267.695C507.038 267.695 506.897 267.632 506.774 267.505C506.651 267.378 506.589 267.231 506.589 267.063C506.589 266.895 506.651 266.748 506.774 266.623C506.897 266.498 507.038 266.436 507.199 266.436ZM507.644 274.85L506.73 274.85L506.73 269.535L504.931 269.535L504.931 268.744L507.644 268.744L507.644 274.85Z"/>
<path d="M516.773 271L514.4 271L514.4 273.397L513.632 273.397L513.632 271L511.23 271L511.23 270.232L513.632 270.232L513.632 267.83L514.4 267.83L514.4 270.232L516.773 270.232L516.773 271Z"/>
<path d="M523.57 274.85L519.222 274.85L519.222 274.012L520.974 274.012L520.974 267.59L519.322 268.416L519.322 267.455L521.109 266.535L521.935 266.535L521.935 274.012L523.57 274.012L523.57 274.85Z"/>
<path d="M528.415 275.008C528.212 274.984 528.044 274.9 527.912 274.756C527.779 274.611 527.712 274.447 527.712 274.264C527.712 274.064 527.777 273.897 527.906 273.76C528.035 273.623 528.197 273.555 528.392 273.555C528.611 273.555 528.8 273.644 528.96 273.821C529.121 273.999 529.201 274.213 529.201 274.463C529.201 275.229 528.775 275.826 527.923 276.256L527.701 275.834C528.177 275.6 528.415 275.324 528.415 275.008Z"/>
<path d="M543.204 266.436C543.376 266.436 543.523 266.497 543.644 266.62C543.765 266.743 543.826 266.891 543.826 267.063C543.826 267.242 543.766 267.393 543.647 267.514C543.528 267.635 543.38 267.695 543.204 267.695C543.044 267.695 542.903 267.632 542.78 267.505C542.657 267.378 542.595 267.231 542.595 267.063C542.595 266.895 542.657 266.748 542.78 266.623C542.903 266.498 543.044 266.436 543.204 266.436ZM543.65 275.16C543.65 275.926 543.518 276.468 543.254 276.786C542.991 277.105 542.531 277.264 541.874 277.264C541.453 277.264 540.984 277.184 540.468 277.023L540.708 276.279C541.142 276.404 541.531 276.467 541.874 276.467C542.203 276.467 542.428 276.374 542.551 276.189C542.674 276.003 542.736 275.629 542.736 275.066L542.736 269.535L540.937 269.535L540.937 268.744L543.65 268.744L543.65 275.16Z"/>
<path d="M548.355 266.436C549.23 267.096 549.894 267.86 550.347 268.73C550.8 269.599 551.027 270.523 551.027 271.504C551.027 272.477 550.799 273.4 550.344 274.275C549.889 275.15 549.226 275.918 548.355 276.578L547.992 276.074C548.706 275.441 549.221 274.769 549.536 274.056C549.85 273.343 550.007 272.488 550.007 271.492C550.007 270.465 549.845 269.606 549.521 268.914C549.197 268.223 548.687 267.564 547.992 266.939L548.355 266.436Z"/>
</g>
<g fill="#000000" opacity="1" stroke="none">
<path d="M494.413 190.776L494.056 191.28C493.185 190.619 492.521 189.852 492.064 188.977C491.607 188.102 491.378 187.178 491.378 186.205C491.378 185.225 491.605 184.3 492.058 183.431C492.511 182.562 493.177 181.797 494.056 181.137L494.413 181.641C493.699 182.282 493.184 182.952 492.87 183.654C492.555 184.355 492.398 185.201 492.398 186.194C492.398 187.221 492.561 188.085 492.887 188.786C493.213 189.488 493.722 190.151 494.413 190.776Z"/>
<path d="M499.997 181.137C500.169 181.137 500.316 181.199 500.437 181.322C500.558 181.445 500.619 181.592 500.619 181.764C500.619 181.944 500.559 182.094 500.44 182.215C500.321 182.336 500.173 182.397 499.997 182.397C499.837 182.397 499.696 182.333 499.573 182.206C499.45 182.079 499.388 181.932 499.388 181.764C499.388 181.596 499.45 181.45 499.573 181.325C499.696 181.2 499.837 181.137 499.997 181.137ZM500.443 189.551L499.529 189.551L499.529 184.237L497.73 184.237L497.73 183.446L500.443 183.446L500.443 189.551Z"/>
<path d="M509.572 185.701L507.199 185.701L507.199 188.098L506.431 188.098L506.431 185.701L504.029 185.701L504.029 184.934L506.431 184.934L506.431 182.532L507.199 182.532L507.199 184.934L509.572 184.934L509.572 185.701Z"/>
<path d="M516.369 189.551L512.021 189.551L512.021 188.713L513.773 188.713L513.773 182.291L512.121 183.118L512.121 182.157L513.908 181.237L514.734 181.237L514.734 188.713L516.369 188.713L516.369 189.551Z"/>
<path d="M521.214 189.709C521.011 189.686 520.843 189.602 520.71 189.457C520.578 189.313 520.511 189.149 520.511 188.965C520.511 188.766 520.576 188.598 520.704 188.461C520.833 188.325 520.996 188.256 521.191 188.256C521.41 188.256 521.599 188.345 521.759 188.523C521.919 188.701 521.999 188.914 521.999 189.164C521.999 189.93 521.574 190.528 520.722 190.957L520.499 190.535C520.976 190.301 521.214 190.026 521.214 189.709Z"/>
<path d="M536.003 181.137C536.175 181.137 536.322 181.199 536.443 181.322C536.564 181.445 536.624 181.592 536.624 181.764C536.624 181.944 536.565 182.094 536.446 182.215C536.327 182.336 536.179 182.397 536.003 182.397C535.843 182.397 535.702 182.333 535.579 182.206C535.455 182.079 535.394 181.932 535.394 181.764C535.394 181.596 535.455 181.45 535.579 181.325C535.702 181.2 535.843 181.137 536.003 181.137ZM536.449 189.862C536.449 190.627 536.317 191.169 536.053 191.488C535.789 191.806 535.329 191.965 534.673 191.965C534.251 191.965 533.783 191.885 533.267 191.725L533.507 190.981C533.941 191.106 534.329 191.168 534.673 191.168C535.001 191.168 535.227 191.076 535.35 190.89C535.473 190.704 535.535 190.33 535.535 189.768L535.535 184.237L533.736 184.237L533.736 183.446L536.449 183.446L536.449 189.862Z"/>
<path d="M544.488 186.698L541.007 186.698L541.007 185.807L544.488 185.807L544.488 186.698Z"/>
<path d="M552.374 189.551L548.027 189.551L548.027 188.713L549.779 188.713L549.779 182.291L548.126 183.118L548.126 182.157L549.913 181.237L550.74 181.237L550.74 188.713L552.374 188.713L552.374 189.551Z"/>
<path d="M555.556 181.137C556.431 181.797 557.095 182.562 557.548 183.431C558.001 184.3 558.228 185.225 558.228 186.205C558.228 187.178 558 188.102 557.545 188.977C557.09 189.852 556.427 190.619 555.556 191.28L555.193 190.776C555.908 190.143 556.422 189.47 556.737 188.757C557.051 188.044 557.208 187.19 557.208 186.194C557.208 185.166 557.046 184.307 556.722 183.616C556.398 182.924 555.888 182.266 555.193 181.641L555.556 181.137Z"/>
</g>
<g fill="#000000" opacity="1" stroke="none">
<path d="M494.413 360.555L494.056 361.059C493.185 360.398 492.521 359.631 492.064 358.756C491.607 357.881 491.378 356.957 491.378 355.984C491.378 355.004 491.605 354.079 492.058 353.21C492.511 352.341 493.177 351.576 494.056 350.916L494.413 351.42C493.699 352.061 493.184 352.731 492.87 353.433C492.555 354.134 492.398 354.981 492.398 355.973C492.398 357 492.561 357.864 492.887 358.565C493.213 359.267 493.722 359.93 494.413 360.555Z"/>
<path d="M499.997 350.916C500.169 350.916 500.316 350.978 500.437 351.101C500.558 351.224 500.619 351.371 500.619 351.543C500.619 351.723 500.559 351.873 500.44 351.994C500.321 352.115 500.173 352.176 499.997 352.176C499.837 352.176 499.696 352.112 499.573 351.985C499.45 351.858 499.388 351.711 499.388 351.543C499.388 351.375 499.45 351.229 499.573 351.104C499.696 350.979 499.837 350.916 499.997 350.916ZM500.443 359.33L499.529 359.33L499.529 354.016L497.73 354.016L497.73 353.225L500.443 353.225L500.443 359.33Z"/>
<path d="M509.572 355.481L507.199 355.481L507.199 357.877L506.431 357.877L506.431 355.481L504.029 355.481L504.029 354.713L506.431 354.713L506.431 352.311L507.199 352.311L507.199 354.713L509.572 354.713L509.572 355.481Z"/>
<path d="M516.369 359.33L512.021 359.33L512.021 358.492L513.773 358.492L513.773 352.07L512.121 352.897L512.121 351.936L513.908 351.016L514.734 351.016L514.734 358.492L516.369 358.492L516.369 359.33Z"/>
<path d="M521.214 359.488C521.011 359.465 520.843 359.381 520.71 359.236C520.578 359.092 520.511 358.928 520.511 358.744C520.511 358.545 520.576 358.377 520.704 358.24C520.833 358.104 520.996 358.035 521.191 358.035C521.41 358.035 521.599 358.124 521.759 358.302C521.919 358.48 521.999 358.693 521.999 358.943C521.999 359.709 521.574 360.307 520.722 360.736L520.499 360.314C520.976 360.08 521.214 359.805 521.214 359.488Z"/>
<path d="M536.003 350.916C536.175 350.916 536.322 350.978 536.443 351.101C536.564 351.224 536.624 351.371 536.624 351.543C536.624 351.723 536.565 351.873 536.446 351.994C536.327 352.115 536.179 352.176 536.003 352.176C535.843 352.176 535.702 352.112 535.579 351.985C535.455 351.858 535.394 351.711 535.394 351.543C535.394 351.375 535.455 351.229 535.579 351.104C535.702 350.979 535.843 350.916 536.003 350.916ZM536.449 359.641C536.449 360.406 536.317 360.948 536.053 361.267C535.789 361.585 535.329 361.744 534.673 361.744C534.251 361.744 533.783 361.664 533.267 361.504L533.507 360.76C533.941 360.885 534.329 360.947 534.673 360.947C535.001 360.947 535.227 360.855 535.35 360.669C535.473 360.483 535.535 360.109 535.535 359.547L535.535 354.016L533.736 354.016L533.736 353.225L536.449 353.225L536.449 359.641Z"/>
<path d="M545.578 355.481L543.204 355.481L543.204 357.877L542.437 357.877L542.437 355.481L540.035 355.481L540.035 354.713L542.437 354.713L542.437 352.311L543.204 352.311L543.204 354.713L545.578 354.713L545.578 355.481Z"/>
<path d="M552.374 359.33L548.027 359.33L548.027 358.492L549.779 358.492L549.779 352.07L548.126 352.897L548.126 351.936L549.913 351.016L550.74 351.016L550.74 358.492L552.374 358.492L552.374 359.33Z"/>
<path d="M555.556 350.916C556.431 351.576 557.095 352.341 557.548 353.21C558.001 354.079 558.228 355.004 558.228 355.984C558.228 356.957 558 357.881 557.545 358.756C557.09 359.631 556.427 360.398 555.556 361.059L555.193 360.555C555.908 359.922 556.422 359.249 556.737 358.536C557.051 357.823 557.208 356.969 557.208 355.973C557.208 354.945 557.046 354.086 556.722 353.395C556.398 352.703 555.888 352.045 555.193 351.42L555.556 350.916Z"/>
</g>
<g fill="#000000" opacity="1" stroke="none">
<path d="M768.92 272.331L765.439 272.331L765.439 271.441L768.92 271.441L768.92 272.331Z"/>
<path d="M776.806 275.185L772.459 275.185L772.459 274.347L774.211 274.347L774.211 267.925L772.558 268.751L772.558 267.79L774.345 266.87L775.172 266.87L775.172 274.347L776.806 274.347L776.806 275.185Z"/>
</g>
<g fill="#000000" opacity="1" stroke="none">
<path d="M677.65 266.759C678.525 266.759 679.198 267.135 679.668 267.887C680.139 268.639 680.374 269.695 680.374 271.054C680.374 272.37 680.146 273.414 679.689 274.186C679.232 274.957 678.552 275.343 677.65 275.343C676.779 275.343 676.107 274.968 675.634 274.218C675.161 273.468 674.925 272.413 674.925 271.054C674.925 269.734 675.155 268.688 675.614 267.916C676.073 267.145 676.751 266.759 677.65 266.759ZM677.65 274.499C678.228 274.499 678.656 274.225 678.936 273.676C679.215 273.127 679.355 272.253 679.355 271.054C679.355 269.851 679.215 268.977 678.936 268.432C678.656 267.887 678.228 267.614 677.65 267.614C677.079 267.614 676.654 267.894 676.372 268.452C676.091 269.011 675.95 269.878 675.95 271.054C675.95 272.245 676.09 273.117 676.369 273.67C676.649 274.223 677.075 274.499 677.65 274.499ZM677.626 270.175C677.872 270.175 678.08 270.26 678.25 270.43C678.42 270.6 678.505 270.808 678.505 271.054C678.505 271.308 678.419 271.526 678.247 271.707C678.075 271.889 677.868 271.98 677.626 271.98C677.388 271.98 677.184 271.889 677.014 271.707C676.844 271.526 676.759 271.308 676.759 271.054C676.759 270.804 676.842 270.595 677.008 270.427C677.174 270.259 677.38 270.175 677.626 270.175Z"/>
<path d="M684.827 273.843C685.034 273.843 685.208 273.913 685.349 274.054C685.489 274.195 685.56 274.368 685.56 274.575C685.56 274.786 685.489 274.967 685.346 275.117C685.203 275.268 685.031 275.343 684.827 275.343C684.628 275.343 684.458 275.268 684.318 275.117C684.177 274.967 684.107 274.786 684.107 274.575C684.107 274.364 684.176 274.19 684.315 274.051C684.453 273.912 684.624 273.843 684.827 273.843Z"/>
<path d="M694.214 275.185L689.667 275.185L689.667 274.488C690.82 273.202 691.568 272.341 691.911 271.904C692.255 271.466 692.534 271.007 692.749 270.527C692.964 270.046 693.072 269.568 693.072 269.091C693.072 268.63 692.932 268.267 692.653 268.001C692.373 267.736 691.982 267.603 691.478 267.603C691.091 267.603 690.572 267.722 689.919 267.96L689.784 267.134C690.374 266.884 690.991 266.759 691.636 266.759C692.374 266.759 692.969 266.967 693.42 267.383C693.871 267.799 694.097 268.355 694.097 269.05C694.097 269.546 693.981 270.038 693.748 270.527C693.516 271.015 693.218 271.484 692.855 271.933C692.491 272.382 691.784 273.187 690.734 274.347L694.214 274.347L694.214 275.185Z"/>
</g>
<g fill="#000000" opacity="1" stroke="none">
<path d="M849.306 266.759C850.181 266.759 850.853 267.135 851.324 267.887C851.795 268.639 852.03 269.695 852.03 271.054C852.03 272.37 851.802 273.414 851.345 274.186C850.888 274.957 850.208 275.343 849.306 275.343C848.434 275.343 847.763 274.968 847.29 274.218C846.817 273.468 846.581 272.413 846.581 271.054C846.581 269.734 846.81 268.688 847.269 267.916C847.728 267.145 848.407 266.759 849.306 266.759ZM849.306 274.499C849.884 274.499 850.312 274.225 850.592 273.676C850.871 273.127 851.011 272.253 851.011 271.054C851.011 269.851 850.871 268.977 850.592 268.432C850.312 267.887 849.884 267.614 849.306 267.614C848.735 267.614 848.309 267.894 848.028 268.452C847.747 269.011 847.606 269.878 847.606 271.054C847.606 272.245 847.746 273.117 848.025 273.67C848.305 274.223 848.731 274.499 849.306 274.499ZM849.282 270.175C849.528 270.175 849.736 270.26 849.906 270.43C850.076 270.6 850.161 270.808 850.161 271.054C850.161 271.308 850.075 271.526 849.903 271.707C849.731 271.889 849.524 271.98 849.282 271.98C849.044 271.98 848.84 271.889 848.67 271.707C848.5 271.526 848.415 271.308 848.415 271.054C848.415 270.804 848.498 270.595 848.664 270.427C848.83 270.259 849.036 270.175 849.282 270.175Z"/>
<path d="M856.483 273.843C856.69 273.843 856.864 273.913 857.005 274.054C857.145 274.195 857.216 274.368 857.216 274.575C857.216 274.786 857.144 274.967 857.002 275.117C856.859 275.268 856.686 275.343 856.483 275.343C856.284 275.343 856.114 275.268 855.974 275.117C855.833 274.967 855.763 274.786 855.763 274.575C855.763 274.364 855.832 274.19 855.971 274.051C856.109 273.912 856.28 273.843 856.483 273.843Z"/>
<path d="M865.87 275.185L861.323 275.185L861.323 274.488C862.475 273.202 863.224 272.341 863.567 271.904C863.911 271.466 864.19 271.007 864.405 270.527C864.62 270.046 864.727 269.568 864.727 269.091C864.727 268.63 864.588 268.267 864.309 268.001C864.029 267.736 863.638 267.603 863.134 267.603C862.747 267.603 862.227 267.722 861.575 267.96L861.44 267.134C862.03 266.884 862.647 266.759 863.292 266.759C864.03 266.759 864.625 266.967 865.076 267.383C865.527 267.799 865.753 268.355 865.753 269.05C865.753 269.546 865.637 270.038 865.404 270.527C865.172 271.015 864.874 271.484 864.511 271.933C864.147 272.382 863.44 273.187 862.39 274.347L865.87 274.347L865.87 275.185Z"/>
</g>
<g fill="#000000" opacity="1" stroke="none">
<path d="M763.626 180.366C764.501 180.366 765.173 180.742 765.644 181.494C766.115 182.246 766.35 183.302 766.35 184.661C766.35 185.978 766.122 187.022 765.665 187.793C765.208 188.565 764.528 188.95 763.626 188.95C762.755 188.95 762.083 188.575 761.61 187.825C761.137 187.075 760.901 186.021 760.901 184.661C760.901 183.341 761.131 182.295 761.589 181.524C762.048 180.752 762.727 180.366 763.626 180.366ZM763.626 188.107C764.204 188.107 764.632 187.832 764.912 187.283C765.191 186.735 765.331 185.86 765.331 184.661C765.331 183.458 765.191 182.584 764.912 182.039C764.632 181.494 764.204 181.222 763.626 181.222C763.055 181.222 762.63 181.501 762.348 182.06C762.067 182.618 761.926 183.485 761.926 184.661C761.926 185.853 762.066 186.725 762.345 187.277C762.625 187.83 763.051 188.107 763.626 188.107ZM763.602 183.782C763.848 183.782 764.056 183.867 764.226 184.037C764.396 184.207 764.481 184.415 764.481 184.661C764.481 184.915 764.395 185.133 764.223 185.315C764.051 185.496 763.844 185.587 763.602 185.587C763.364 185.587 763.16 185.496 762.99 185.315C762.82 185.133 762.735 184.915 762.735 184.661C762.735 184.411 762.818 184.202 762.984 184.034C763.15 183.866 763.356 183.782 763.602 183.782Z"/>
<path d="M770.803 187.45C771.01 187.45 771.184 187.521 771.325 187.661C771.465 187.802 771.536 187.976 771.536 188.183C771.536 188.394 771.464 188.574 771.322 188.725C771.179 188.875 771.006 188.95 770.803 188.95C770.604 188.95 770.434 188.875 770.294 188.725C770.153 188.574 770.083 188.394 770.083 188.183C770.083 187.972 770.152 187.797 770.291 187.658C770.429 187.52 770.6 187.45 770.803 187.45Z"/>
<path d="M780.19 188.792L775.643 188.792L775.643 188.095C776.796 186.81 777.544 185.948 777.887 185.511C778.231 185.073 778.51 184.614 778.725 184.134C778.94 183.653 779.047 183.175 779.047 182.698C779.047 182.237 778.908 181.874 778.629 181.609C778.349 181.343 777.958 181.21 777.454 181.21C777.067 181.21 776.547 181.329 775.895 181.568L775.76 180.741C776.35 180.491 776.967 180.366 777.612 180.366C778.35 180.366 778.945 180.574 779.396 180.99C779.847 181.406 780.073 181.962 780.073 182.657C780.073 183.153 779.957 183.646 779.724 184.134C779.492 184.622 779.194 185.091 778.831 185.54C778.467 185.989 777.76 186.794 776.71 187.954L780.19 187.954L780.19 188.792Z"/>
</g>
<g fill="#000000" opacity="1" stroke="none">
<path d="M763.626 350.126C764.501 350.126 765.173 350.502 765.644 351.254C766.115 352.006 766.35 353.062 766.35 354.421C766.35 355.737 766.122 356.781 765.665 357.553C765.208 358.324 764.528 358.71 763.626 358.71C762.755 358.71 762.083 358.335 761.61 357.585C761.137 356.835 760.901 355.78 760.901 354.421C760.901 353.101 761.131 352.055 761.589 351.283C762.048 350.512 762.727 350.126 763.626 350.126ZM763.626 357.866C764.204 357.866 764.632 357.592 764.912 357.043C765.191 356.494 765.331 355.62 765.331 354.421C765.331 353.218 765.191 352.344 764.912 351.799C764.632 351.254 764.204 350.982 763.626 350.982C763.055 350.982 762.63 351.261 762.348 351.819C762.067 352.378 761.926 353.245 761.926 354.421C761.926 355.612 762.066 356.484 762.345 357.037C762.625 357.59 763.051 357.866 763.626 357.866ZM763.602 353.542C763.848 353.542 764.056 353.627 764.226 353.797C764.396 353.967 764.481 354.175 764.481 354.421C764.481 354.675 764.395 354.893 764.223 355.074C764.051 355.256 763.844 355.347 763.602 355.347C763.364 355.347 763.16 355.256 762.99 355.074C762.82 354.893 762.735 354.675 762.735 354.421C762.735 354.171 762.818 353.962 762.984 353.794C763.15 353.626 763.356 353.542 763.602 353.542Z"/>
<path d="M770.803 357.21C771.01 357.21 771.184 357.28 771.325 357.421C771.465 357.562 771.536 357.735 771.536 357.942C771.536 358.153 771.464 358.334 771.322 358.484C771.179 358.635 771.006 358.71 770.803 358.71C770.604 358.71 770.434 358.635 770.294 358.484C770.153 358.334 770.083 358.153 770.083 357.942C770.083 357.732 770.152 357.557 770.291 357.418C770.429 357.279 770.6 357.21 770.803 357.21Z"/>
<path d="M780.19 358.552L775.643 358.552L775.643 357.855C776.796 356.569 777.544 355.708 777.887 355.271C778.231 354.833 778.51 354.374 778.725 353.894C778.94 353.413 779.047 352.935 779.047 352.458C779.047 351.997 778.908 351.634 778.629 351.368C778.349 351.103 777.958 350.97 777.454 350.97C777.067 350.97 776.547 351.089 775.895 351.327L775.76 350.501C776.35 350.251 776.967 350.126 777.612 350.126C778.35 350.126 778.945 350.334 779.396 350.75C779.847 351.166 780.073 351.722 780.073 352.417C780.073 352.913 779.957 353.405 779.724 353.894C779.492 354.382 779.194 354.851 778.831 355.3C778.467 355.749 777.76 356.554 776.71 357.714L780.19 357.714L780.19 358.552Z"/>
</g>
<g fill="#000000" opacity="1" stroke="none">
<path d="M674.049 180.366C674.924 180.366 675.597 180.742 676.068 181.494C676.538 182.246 676.774 183.302 676.774 184.661C676.774 185.978 676.545 187.022 676.088 187.793C675.631 188.565 674.951 188.95 674.049 188.95C673.178 188.95 672.506 188.575 672.033 187.825C671.561 187.075 671.324 186.021 671.324 184.661C671.324 183.341 671.554 182.295 672.013 181.524C672.472 180.752 673.151 180.366 674.049 180.366ZM674.049 188.107C674.627 188.107 675.056 187.832 675.335 187.283C675.614 186.735 675.754 185.86 675.754 184.661C675.754 183.458 675.614 182.584 675.335 182.039C675.056 181.494 674.627 181.222 674.049 181.222C673.479 181.222 673.053 181.501 672.772 182.06C672.49 182.618 672.35 183.485 672.35 184.661C672.35 185.853 672.489 186.725 672.769 187.277C673.048 187.83 673.475 188.107 674.049 188.107ZM674.026 183.782C674.272 183.782 674.48 183.867 674.65 184.037C674.82 184.207 674.905 184.415 674.905 184.661C674.905 184.915 674.819 185.133 674.647 185.315C674.475 185.496 674.268 185.587 674.026 185.587C673.787 185.587 673.583 185.496 673.413 185.315C673.243 185.133 673.158 184.915 673.158 184.661C673.158 184.411 673.241 184.202 673.407 184.034C673.573 183.866 673.78 183.782 674.026 183.782Z"/>
<path d="M681.227 187.45C681.434 187.45 681.608 187.521 681.748 187.661C681.889 187.802 681.959 187.976 681.959 188.183C681.959 188.394 681.888 188.574 681.745 188.725C681.603 188.875 681.43 188.95 681.227 188.95C681.028 188.95 680.858 188.875 680.717 188.725C680.576 188.574 680.506 188.394 680.506 188.183C680.506 187.972 680.575 187.797 680.714 187.658C680.853 187.52 681.024 187.45 681.227 187.45Z"/>
<path d="M688.451 180.366C689.326 180.366 689.999 180.742 690.47 181.494C690.941 182.246 691.176 183.302 691.176 184.661C691.176 185.978 690.948 187.022 690.49 187.793C690.033 188.565 689.354 188.95 688.451 188.95C687.58 188.95 686.908 188.575 686.436 187.825C685.963 187.075 685.727 186.021 685.727 184.661C685.727 183.341 685.956 182.295 686.415 181.524C686.874 180.752 687.553 180.366 688.451 180.366ZM688.451 188.107C689.03 188.107 689.458 187.832 689.738 187.283C690.017 186.735 690.156 185.86 690.156 184.661C690.156 183.458 690.017 182.584 689.738 182.039C689.458 181.494 689.03 181.222 688.451 181.222C687.881 181.222 687.455 181.501 687.174 182.06C686.893 182.618 686.752 183.485 686.752 184.661C686.752 185.853 686.892 186.725 687.171 187.277C687.45 187.83 687.877 188.107 688.451 188.107ZM688.428 183.782C688.674 183.782 688.882 183.867 689.052 184.037C689.222 184.207 689.307 184.415 689.307 184.661C689.307 184.915 689.221 185.133 689.049 185.315C688.877 185.496 688.67 185.587 688.428 185.587C688.19 185.587 687.986 185.496 687.816 185.315C687.646 185.133 687.561 184.915 687.561 184.661C687.561 184.411 687.644 184.202 687.81 184.034C687.976 183.866 688.182 183.782 688.428 183.782Z"/>
<path d="M694.61 183.859C694.875 183.788 695.135 183.753 695.389 183.753C696.17 183.753 696.787 183.992 697.24 184.471C697.694 184.949 697.92 185.546 697.92 186.261C697.92 187.011 697.656 187.647 697.129 188.168C696.602 188.69 695.959 188.95 695.201 188.95C694.479 188.95 693.873 188.829 693.385 188.587L693.578 187.773C694.11 187.995 694.658 188.107 695.225 188.107C695.729 188.107 696.136 187.944 696.447 187.62C696.757 187.296 696.912 186.843 696.912 186.261C696.912 185.71 696.766 185.286 696.473 184.989C696.18 184.693 695.803 184.544 695.342 184.544C695.006 184.544 694.674 184.609 694.346 184.737L693.772 184.474L693.772 180.525L697.551 180.525L697.551 181.362L694.61 181.362L694.61 183.859Z"/>
</g>
<g fill="#000000" opacity="1" stroke="none">
<path d="M845.705 180.366C846.58 180.366 847.253 180.742 847.724 181.494C848.194 182.246 848.43 183.302 848.43 184.661C848.43 185.978 848.201 187.022 847.744 187.793C847.287 188.565 846.607 188.95 845.705 188.95C844.834 188.95 844.162 188.575 843.689 187.825C843.217 187.075 842.98 186.021 842.98 184.661C842.98 183.341 843.21 182.295 843.669 181.524C844.128 180.752 844.807 180.366 845.705 180.366ZM845.705 188.107C846.283 188.107 846.712 187.832 846.991 187.283C847.27 186.735 847.41 185.86 847.41 184.661C847.41 183.458 847.27 182.584 846.991 182.039C846.712 181.494 846.283 181.222 845.705 181.222C845.135 181.222 844.709 181.501 844.428 182.06C844.146 182.618 844.006 183.485 844.006 184.661C844.006 185.853 844.145 186.725 844.425 187.277C844.704 187.83 845.131 188.107 845.705 188.107ZM845.682 183.782C845.928 183.782 846.136 183.867 846.306 184.037C846.475 184.207 846.56 184.415 846.56 184.661C846.56 184.915 846.475 185.133 846.303 185.315C846.131 185.496 845.924 185.587 845.682 185.587C845.443 185.587 845.239 185.496 845.069 185.315C844.899 185.133 844.814 184.915 844.814 184.661C844.814 184.411 844.897 184.202 845.063 184.034C845.229 183.866 845.435 183.782 845.682 183.782Z"/>
<path d="M852.883 187.45C853.09 187.45 853.264 187.521 853.404 187.661C853.545 187.802 853.615 187.976 853.615 188.183C853.615 188.394 853.544 188.574 853.401 188.725C853.259 188.875 853.086 188.95 852.883 188.95C852.684 188.95 852.514 188.875 852.373 188.725C852.232 188.574 852.162 188.394 852.162 188.183C852.162 187.972 852.231 187.797 852.37 187.658C852.509 187.52 852.68 187.45 852.883 187.45Z"/>
<path d="M860.107 180.366C860.982 180.366 861.655 180.742 862.126 181.494C862.597 182.246 862.832 183.302 862.832 184.661C862.832 185.978 862.603 187.022 862.146 187.793C861.689 188.565 861.01 188.95 860.107 188.95C859.236 188.95 858.564 188.575 858.092 187.825C857.619 187.075 857.383 186.021 857.383 184.661C857.383 183.341 857.612 182.295 858.071 181.524C858.53 180.752 859.209 180.366 860.107 180.366ZM860.107 188.107C860.685 188.107 861.114 187.832 861.393 187.283C861.673 186.735 861.812 185.86 861.812 184.661C861.812 183.458 861.673 182.584 861.393 182.039C861.114 181.494 860.685 181.222 860.107 181.222C859.537 181.222 859.111 181.501 858.83 182.06C858.549 182.618 858.408 183.485 858.408 184.661C858.408 185.853 858.548 186.725 858.827 187.277C859.106 187.83 859.533 188.107 860.107 188.107ZM860.084 183.782C860.33 183.782 860.538 183.867 860.708 184.037C860.878 184.207 860.963 184.415 860.963 184.661C860.963 184.915 860.877 185.133 860.705 185.315C860.533 185.496 860.326 185.587 860.084 185.587C859.846 185.587 859.642 185.496 859.472 185.315C859.302 185.133 859.217 184.915 859.217 184.661C859.217 184.411 859.3 184.202 859.466 184.034C859.632 183.866 859.838 183.782 860.084 183.782Z"/>
<path d="M866.266 183.859C866.531 183.788 866.791 183.753 867.045 183.753C867.826 183.753 868.443 183.992 868.896 184.471C869.35 184.949 869.576 185.546 869.576 186.261C869.576 187.011 869.312 187.647 868.785 188.168C868.258 188.69 867.615 188.95 866.857 188.95C866.135 188.95 865.529 188.829 865.041 188.587L865.234 187.773C865.766 187.995 866.314 188.107 866.881 188.107C867.385 188.107 867.792 187.944 868.102 187.62C868.413 187.296 868.568 186.843 868.568 186.261C868.568 185.71 868.422 185.286 868.129 184.989C867.836 184.693 867.459 184.544 866.998 184.544C866.662 184.544 866.33 184.609 866.002 184.737L865.428 184.474L865.428 180.525L869.207 180.525L869.207 181.362L866.266 181.362L866.266 183.859Z"/>
</g>
<g fill="#000000" opacity="1" stroke="none">
<path d="M674.049 350.126C674.924 350.126 675.597 350.502 676.068 351.254C676.538 352.006 676.774 353.062 676.774 354.421C676.774 355.737 676.545 356.781 676.088 357.553C675.631 358.324 674.951 358.71 674.049 358.71C673.178 358.71 672.506 358.335 672.033 357.585C671.561 356.835 671.324 355.78 671.324 354.421C671.324 353.101 671.554 352.055 672.013 351.283C672.472 350.512 673.151 350.126 674.049 350.126ZM674.049 357.866C674.627 357.866 675.056 357.592 675.335 357.043C675.614 356.494 675.754 355.62 675.754 354.421C675.754 353.218 675.614 352.344 675.335 351.799C675.056 351.254 674.627 350.982 674.049 350.982C673.479 350.982 673.053 351.261 672.772 351.819C672.49 352.378 672.35 353.245 672.35 354.421C672.35 355.612 672.489 356.484 672.769 357.037C673.048 357.59 673.475 357.866 674.049 357.866ZM674.026 353.542C674.272 353.542 674.48 353.627 674.65 353.797C674.82 353.967 674.905 354.175 674.905 354.421C674.905 354.675 674.819 354.893 674.647 355.074C674.475 355.256 674.268 355.347 674.026 355.347C673.787 355.347 673.583 355.256 673.413 355.074C673.243 354.893 673.158 354.675 673.158 354.421C673.158 354.171 673.241 353.962 673.407 353.794C673.573 353.626 673.78 353.542 674.026 353.542Z"/>
<path d="M681.227 357.21C681.434 357.21 681.608 357.28 681.748 357.421C681.889 357.562 681.959 357.735 681.959 357.942C681.959 358.153 681.888 358.334 681.745 358.484C681.603 358.635 681.43 358.71 681.227 358.71C681.028 358.71 680.858 358.635 680.717 358.484C680.576 358.334 680.506 358.153 680.506 357.942C680.506 357.732 680.575 357.557 680.714 357.418C680.853 357.279 681.024 357.21 681.227 357.21Z"/>
<path d="M688.451 350.126C689.326 350.126 689.999 350.502 690.47 351.254C690.941 352.006 691.176 353.062 691.176 354.421C691.176 355.737 690.948 356.781 690.49 357.553C690.033 358.324 689.354 358.71 688.451 358.71C687.58 358.71 686.908 358.335 686.436 357.585C685.963 356.835 685.727 355.78 685.727 354.421C685.727 353.101 685.956 352.055 686.415 351.283C686.874 350.512 687.553 350.126 688.451 350.126ZM688.451 357.866C689.03 357.866 689.458 357.592 689.738 357.043C690.017 356.494 690.156 355.62 690.156 354.421C690.156 353.218 690.017 352.344 689.738 351.799C689.458 351.254 689.03 350.982 688.451 350.982C687.881 350.982 687.455 351.261 687.174 351.819C686.893 352.378 686.752 353.245 686.752 354.421C686.752 355.612 686.892 356.484 687.171 357.037C687.45 357.59 687.877 357.866 688.451 357.866ZM688.428 353.542C688.674 353.542 688.882 353.627 689.052 353.797C689.222 353.967 689.307 354.175 689.307 354.421C689.307 354.675 689.221 354.893 689.049 355.074C688.877 355.256 688.67 355.347 688.428 355.347C688.19 355.347 687.986 355.256 687.816 355.074C687.646 354.893 687.561 354.675 687.561 354.421C687.561 354.171 687.644 353.962 687.81 353.794C687.976 353.626 688.182 353.542 688.428 353.542Z"/>
<path d="M694.61 353.618C694.875 353.548 695.135 353.513 695.389 353.513C696.17 353.513 696.787 353.752 697.24 354.231C697.694 354.709 697.92 355.306 697.92 356.021C697.92 356.771 697.656 357.406 697.129 357.928C696.602 358.449 695.959 358.71 695.201 358.71C694.479 358.71 693.873 358.589 693.385 358.347L693.578 357.532C694.11 357.755 694.658 357.866 695.225 357.866C695.729 357.866 696.136 357.704 696.447 357.38C696.757 357.056 696.912 356.603 696.912 356.021C696.912 355.47 696.766 355.046 696.473 354.749C696.18 354.452 695.803 354.304 695.342 354.304C695.006 354.304 694.674 354.368 694.346 354.497L693.772 354.234L693.772 350.284L697.551 350.284L697.551 351.122L694.61 351.122L694.61 353.618Z"/>
</g>
<g fill="#000000" opacity="1" stroke="none">
<path d="M845.705 350.126C846.58 350.126 847.253 350.502 847.724 351.254C848.194 352.006 848.43 353.062 848.43 354.421C848.43 355.737 848.201 356.781 847.744 357.553C847.287 358.324 846.607 358.71 845.705 358.71C844.834 358.71 844.162 358.335 843.689 357.585C843.217 356.835 842.98 355.78 842.98 354.421C842.98 353.101 843.21 352.055 843.669 351.283C844.128 350.512 844.807 350.126 845.705 350.126ZM845.705 357.866C846.283 357.866 846.712 357.592 846.991 357.043C847.27 356.494 847.41 355.62 847.41 354.421C847.41 353.218 847.27 352.344 846.991 351.799C846.712 351.254 846.283 350.982 845.705 350.982C845.135 350.982 844.709 351.261 844.428 351.819C844.146 352.378 844.006 353.245 844.006 354.421C844.006 355.612 844.145 356.484 844.425 357.037C844.704 357.59 845.131 357.866 845.705 357.866ZM845.682 353.542C845.928 353.542 846.136 353.627 846.306 353.797C846.475 353.967 846.56 354.175 846.56 354.421C846.56 354.675 846.475 354.893 846.303 355.074C846.131 355.256 845.924 355.347 845.682 355.347C845.443 355.347 845.239 355.256 845.069 355.074C844.899 354.893 844.814 354.675 844.814 354.421C844.814 354.171 844.897 353.962 845.063 353.794C845.229 353.626 845.435 353.542 845.682 353.542Z"/>
<path d="M852.883 357.21C853.09 357.21 853.264 357.28 853.404 357.421C853.545 357.562 853.615 357.735 853.615 357.942C853.615 358.153 853.544 358.334 853.401 358.484C853.259 358.635 853.086 358.71 852.883 358.71C852.684 358.71 852.514 358.635 852.373 358.484C852.232 358.334 852.162 358.153 852.162 357.942C852.162 357.732 852.231 357.557 852.37 357.418C852.509 357.279 852.68 357.21 852.883 357.21Z"/>
<path d="M860.107 350.126C860.982 350.126 861.655 350.502 862.126 351.254C862.597 352.006 862.832 353.062 862.832 354.421C862.832 355.737 862.603 356.781 862.146 357.553C861.689 358.324 861.01 358.71 860.107 358.71C859.236 358.71 858.564 358.335 858.092 357.585C857.619 356.835 857.383 355.78 857.383 354.421C857.383 353.101 857.612 352.055 858.071 351.283C858.53 350.512 859.209 350.126 860.107 350.126ZM860.107 357.866C860.685 357.866 861.114 357.592 861.393 357.043C861.673 356.494 861.812 355.62 861.812 354.421C861.812 353.218 861.673 352.344 861.393 351.799C861.114 351.254 860.685 350.982 860.107 350.982C859.537 350.982 859.111 351.261 858.83 351.819C858.549 352.378 858.408 353.245 858.408 354.421C858.408 355.612 858.548 356.484 858.827 357.037C859.106 357.59 859.533 357.866 860.107 357.866ZM860.084 353.542C860.33 353.542 860.538 353.627 860.708 353.797C860.878 353.967 860.963 354.175 860.963 354.421C860.963 354.675 860.877 354.893 860.705 355.074C860.533 355.256 860.326 355.347 860.084 355.347C859.846 355.347 859.642 355.256 859.472 355.074C859.302 354.893 859.217 354.675 859.217 354.421C859.217 354.171 859.3 353.962 859.466 353.794C859.632 353.626 859.838 353.542 860.084 353.542Z"/>
<path d="M866.266 353.618C866.531 353.548 866.791 353.513 867.045 353.513C867.826 353.513 868.443 353.752 868.896 354.231C869.35 354.709 869.576 355.306 869.576 356.021C869.576 356.771 869.312 357.406 868.785 357.928C868.258 358.449 867.615 358.71 866.857 358.71C866.135 358.71 865.529 358.589 865.041 358.347L865.234 357.532C865.766 357.755 866.314 357.866 866.881 357.866C867.385 357.866 867.792 357.704 868.102 357.38C868.413 357.056 868.568 356.603 868.568 356.021C868.568 355.47 868.422 355.046 868.129 354.749C867.836 354.452 867.459 354.304 866.998 354.304C866.662 354.304 866.33 354.368 866.002 354.497L865.428 354.234L865.428 350.284L869.207 350.284L869.207 351.122L866.266 351.122L866.266 353.618Z"/>
</g>
<g fill="#000000" opacity="1" stroke="none">
<path d="M420.581 428.958C419.785 429.321 418.909 429.503 417.953 429.503C416.512 429.503 415.362 429.065 414.504 428.189C413.645 427.313 413.216 426.148 413.216 424.695C413.216 423.242 413.648 422.077 414.513 421.201C415.377 420.326 416.512 419.888 417.918 419.888C418.838 419.888 419.714 420.049 420.546 420.371L420.186 421.505C419.354 421.218 418.604 421.074 417.936 421.074C416.928 421.074 416.13 421.399 415.541 422.05C414.952 422.7 414.658 423.582 414.658 424.695C414.658 425.715 414.962 426.572 415.572 427.266C416.181 427.96 416.975 428.307 417.953 428.307C418.727 428.307 419.524 428.158 420.344 427.859L420.581 428.958Z"/>
<path d="M431.691 424.73L425.407 424.73C425.407 425.767 425.707 426.623 426.307 427.297C426.908 427.971 427.645 428.307 428.518 428.307C429.35 428.307 430.208 428.158 431.093 427.859L431.33 428.958C430.522 429.321 429.578 429.503 428.5 429.503C427.141 429.503 426.045 429.066 425.213 428.193C424.381 427.32 423.965 426.142 423.965 424.66C423.965 423.207 424.339 422.048 425.086 421.184C425.833 420.32 426.798 419.888 427.982 419.888C429.036 419.888 429.918 420.289 430.627 421.092C431.336 421.894 431.691 422.964 431.691 424.3L431.691 424.73ZM430.197 423.614C430.197 422.899 429.974 422.297 429.529 421.808C429.083 421.319 428.585 421.074 428.035 421.074C427.326 421.074 426.738 421.308 426.272 421.777C425.807 422.246 425.547 422.858 425.495 423.614L430.197 423.614Z"/>
<path d="M441.552 429.265L437.808 429.265L437.808 418.051L435.417 418.051L435.417 416.864L439.179 416.864L439.179 428.079L441.552 428.079L441.552 429.265Z"/>
<path d="M452.354 429.265L448.61 429.265L448.61 418.051L446.219 418.051L446.219 416.864L449.981 416.864L449.981 428.079L452.354 428.079L452.354 429.265Z"/>
<path d="M462.866 421.417C462.098 421.165 461.374 421.039 460.695 421.039C459.951 421.039 459.362 421.163 458.928 421.412C458.495 421.661 458.278 421.994 458.278 422.41C458.278 422.674 458.377 422.904 458.577 423.1C458.776 423.296 459.174 423.479 459.772 423.649L461.081 424.027C461.685 424.197 462.177 424.401 462.558 424.638C462.939 424.875 463.224 425.162 463.415 425.499C463.605 425.836 463.701 426.227 463.701 426.673C463.701 427.546 463.334 428.236 462.602 428.743C461.87 429.249 460.938 429.503 459.807 429.503C458.682 429.503 457.753 429.333 457.021 428.993L457.285 427.806C458.052 428.17 458.875 428.351 459.754 428.351C460.516 428.351 461.136 428.209 461.613 427.925C462.091 427.641 462.329 427.264 462.329 426.796C462.329 426.479 462.211 426.197 461.974 425.948C461.736 425.699 461.178 425.439 460.299 425.17C459.59 424.953 459.069 424.79 458.735 424.682C458.401 424.574 458.09 424.414 457.803 424.203C457.516 423.992 457.298 423.74 457.148 423.447C456.999 423.154 456.924 422.826 456.924 422.463C456.924 421.672 457.27 421.045 457.961 420.582C458.653 420.119 459.57 419.888 460.712 419.888C461.451 419.888 462.271 420.013 463.173 420.265L462.866 421.417Z"/>
</g>
<g fill="#000000" opacity="1" stroke="none">
<path d="M743.217 420.107L741.899 429.265L740.853 429.265L738.7 424.08L736.537 429.265L735.492 429.265L734.2 420.107L735.562 420.107C736.048 424.385 736.3 426.629 736.318 426.84L737.996 422.858L739.403 422.858L741.073 426.813L741.811 420.107L743.217 420.107Z"/>
<path d="M753.21 424.73L746.926 424.73C746.926 425.767 747.226 426.623 747.827 427.297C748.428 427.971 749.164 428.307 750.037 428.307C750.87 428.307 751.728 428.158 752.613 427.859L752.85 428.958C752.041 429.321 751.098 429.503 750.02 429.503C748.661 429.503 747.565 429.066 746.733 428.193C745.901 427.32 745.485 426.142 745.485 424.66C745.485 423.207 745.858 422.048 746.605 421.184C747.352 420.32 748.318 419.888 749.501 419.888C750.556 419.888 751.438 420.289 752.147 421.092C752.856 421.894 753.21 422.964 753.21 424.3L753.21 424.73ZM751.716 423.614C751.716 422.899 751.494 422.297 751.048 421.808C750.603 421.319 750.105 421.074 749.554 421.074C748.845 421.074 748.258 421.308 747.792 421.777C747.326 422.246 747.067 422.858 747.014 423.614L751.716 423.614Z"/>
<path d="M760.786 416.644C761.044 416.644 761.264 416.737 761.446 416.921C761.627 417.106 761.718 417.327 761.718 417.585C761.718 417.854 761.629 418.08 761.45 418.262C761.271 418.443 761.05 418.534 760.786 418.534C760.546 418.534 760.334 418.439 760.149 418.248C759.965 418.058 759.872 417.837 759.872 417.585C759.872 417.333 759.965 417.113 760.149 416.926C760.334 416.738 760.546 416.644 760.786 416.644ZM761.454 429.265L760.083 429.265L760.083 421.294L757.385 421.294L757.385 420.107L761.454 420.107L761.454 429.265Z"/>
<path d="M770.024 425.811C769.168 426.227 768.741 426.594 768.741 426.91C768.741 427.08 768.839 427.223 769.035 427.341C769.231 427.458 769.499 427.516 769.839 427.516L772.924 427.429C773.657 427.429 774.226 427.607 774.634 427.965C775.041 428.322 775.244 428.829 775.244 429.485C775.244 430.522 774.782 431.348 773.856 431.964C772.93 432.579 771.849 432.887 770.613 432.887C769.599 432.887 768.77 432.674 768.125 432.249C767.481 431.825 767.159 431.275 767.159 430.601C767.159 429.869 767.657 429.251 768.653 428.747C767.827 428.36 767.413 427.886 767.413 427.323C767.413 426.679 767.947 426.078 769.013 425.521C768.521 425.222 768.143 424.836 767.879 424.361C767.616 423.887 767.484 423.386 767.484 422.858C767.484 421.997 767.777 421.289 768.363 420.736C768.949 420.182 769.681 419.905 770.56 419.905C771.193 419.905 771.764 420.037 772.274 420.301L774.99 419.888L774.99 421.223L773.241 421.223C773.504 421.686 773.636 422.231 773.636 422.858C773.636 423.69 773.346 424.393 772.766 424.968C772.186 425.542 771.451 425.829 770.56 425.829C770.372 425.829 770.194 425.823 770.024 425.811ZM770.56 424.765C771.064 424.765 771.475 424.591 771.795 424.243C772.114 423.894 772.274 423.438 772.274 422.876C772.274 422.284 772.119 421.821 771.808 421.487C771.497 421.153 771.081 420.986 770.56 420.986C770.074 420.986 769.665 421.16 769.334 421.509C769.003 421.858 768.837 422.313 768.837 422.876C768.837 423.427 769.003 423.879 769.334 424.234C769.665 424.588 770.074 424.765 770.56 424.765ZM770.613 431.823C771.515 431.823 772.284 431.622 772.92 431.221C773.556 430.82 773.873 430.323 773.873 429.731C773.873 429.122 773.422 428.817 772.52 428.817C772.221 428.817 771.705 428.835 770.973 428.87C770.51 428.893 770.147 428.905 769.883 428.905C769.754 428.905 769.554 429.011 769.281 429.222C769.009 429.432 768.801 429.645 768.657 429.859C768.514 430.073 768.442 430.294 768.442 430.522C768.442 430.88 768.641 431.186 769.039 431.441C769.438 431.696 769.962 431.823 770.613 431.823Z"/>
<path d="M785.343 429.265L783.972 429.265L783.972 423.394C783.972 422.58 783.842 421.99 783.581 421.623C783.32 421.257 782.911 421.074 782.355 421.074C781.517 421.074 780.618 421.596 779.657 422.638L779.657 429.265L778.286 429.265L778.286 416.864L779.657 416.864L779.657 421.452C780.641 420.409 781.678 419.888 782.768 419.888C784.485 419.888 785.343 420.925 785.343 422.999L785.343 429.265Z"/>
<path d="M796.233 428.852C795.313 429.274 794.408 429.485 793.517 429.485C791.882 429.485 791.065 428.621 791.065 426.892L791.065 421.294L789.307 421.294L789.307 420.107L791.065 420.107L791.065 417.602L792.401 417.602L792.401 420.107L795.512 420.107L795.512 421.294L792.401 421.294L792.401 426.532C792.401 427.089 792.524 427.521 792.77 427.828C793.016 428.136 793.35 428.29 793.772 428.29C794.522 428.29 795.263 428.123 795.995 427.789L796.233 428.852Z"/>
<path d="M805.989 421.417C805.221 421.165 804.497 421.039 803.818 421.039C803.074 421.039 802.485 421.163 802.051 421.412C801.618 421.661 801.401 421.994 801.401 422.41C801.401 422.674 801.5 422.904 801.7 423.1C801.899 423.296 802.297 423.479 802.895 423.649L804.204 424.027C804.808 424.197 805.3 424.401 805.681 424.638C806.062 424.875 806.348 425.162 806.538 425.499C806.728 425.836 806.824 426.227 806.824 426.673C806.824 427.546 806.457 428.236 805.725 428.743C804.993 429.249 804.061 429.503 802.93 429.503C801.805 429.503 800.876 429.333 800.144 428.993L800.408 427.806C801.175 428.17 801.998 428.351 802.877 428.351C803.639 428.351 804.259 428.209 804.736 427.925C805.214 427.641 805.453 427.264 805.453 426.796C805.453 426.479 805.334 426.197 805.097 425.948C804.859 425.699 804.301 425.439 803.422 425.17C802.713 424.953 802.192 424.79 801.858 424.682C801.524 424.574 801.213 424.414 800.926 424.203C800.639 423.992 800.421 423.74 800.271 423.447C800.122 423.154 800.047 422.826 800.047 422.463C800.047 421.672 800.393 421.045 801.084 420.582C801.776 420.119 802.693 419.888 803.835 419.888C804.574 419.888 805.394 420.013 806.296 420.265L805.989 421.417Z"/>
</g>
</g>
</svg>
